<mxfile host="65bd71144e">
    <diagram id="9hkDsbXUNLi9VoWPuBys" name="Page-1">
        <mxGraphModel dx="1145" dy="658" grid="1" gridSize="10" guides="1" tooltips="1" connect="1" arrows="1" fold="1" page="1" pageScale="1" pageWidth="827" pageHeight="1169" math="0" shadow="0">
            <root>
                <mxCell id="0"/>
                <mxCell id="1" parent="0"/>
                <mxCell id="37" value="" style="swimlane;startSize=0;sketch=0;fontSize=10;strokeWidth=1;gradientColor=none;dashed=1;" vertex="1" parent="1">
                    <mxGeometry x="70" y="160" width="490" height="210" as="geometry"/>
                </mxCell>
                <mxCell id="96" style="edgeStyle=orthogonalEdgeStyle;rounded=0;html=1;exitX=0.5;exitY=1;exitDx=0;exitDy=0;entryX=0.458;entryY=-0.02;entryDx=0;entryDy=0;entryPerimeter=0;fontSize=8;strokeWidth=1;elbow=vertical;" edge="1" parent="37" source="2" target="4">
                    <mxGeometry relative="1" as="geometry">
                        <Array as="points">
                            <mxPoint x="246" y="51"/>
                            <mxPoint x="351" y="51"/>
                        </Array>
                    </mxGeometry>
                </mxCell>
                <mxCell id="97" style="edgeStyle=orthogonalEdgeStyle;rounded=0;html=1;exitX=0.5;exitY=1;exitDx=0;exitDy=0;entryX=0.472;entryY=-0.002;entryDx=0;entryDy=0;entryPerimeter=0;fontSize=8;strokeWidth=1;elbow=vertical;" edge="1" parent="37" source="2" target="20">
                    <mxGeometry relative="1" as="geometry">
                        <Array as="points">
                            <mxPoint x="246" y="51"/>
                            <mxPoint x="141" y="51"/>
                        </Array>
                    </mxGeometry>
                </mxCell>
                <mxCell id="2" value="&lt;font style=&quot;font-size: 10px&quot;&gt;&lt;span&gt;行人视角&lt;/span&gt;&lt;br&gt;&lt;span&gt;街道场景图片&lt;/span&gt;&lt;/font&gt;" style="rounded=1;whiteSpace=wrap;html=1;" vertex="1" parent="37">
                    <mxGeometry x="196" y="6" width="100" height="34.5" as="geometry"/>
                </mxCell>
                <mxCell id="92" style="edgeStyle=orthogonalEdgeStyle;rounded=0;html=1;exitX=0.5;exitY=1;exitDx=0;exitDy=0;entryX=0.5;entryY=0;entryDx=0;entryDy=0;fontSize=8;elbow=vertical;" edge="1" parent="37" source="4" target="5">
                    <mxGeometry relative="1" as="geometry"/>
                </mxCell>
                <mxCell id="4" value="&lt;font style=&quot;font-size: 10px&quot;&gt;DeepLabV3+&lt;br&gt;语义分割框架&lt;/font&gt;" style="shape=parallelogram;perimeter=parallelogramPerimeter;whiteSpace=wrap;html=1;fixedSize=1;sketch=0;" vertex="1" parent="37">
                    <mxGeometry x="301" y="63.75" width="110" height="37.5" as="geometry"/>
                </mxCell>
                <mxCell id="94" style="edgeStyle=orthogonalEdgeStyle;rounded=0;html=1;exitX=0.5;exitY=1;exitDx=0;exitDy=0;entryX=0.5;entryY=0;entryDx=0;entryDy=0;fontSize=8;elbow=vertical;" edge="1" parent="37" source="5" target="26">
                    <mxGeometry relative="1" as="geometry">
                        <Array as="points">
                            <mxPoint x="351" y="146"/>
                            <mxPoint x="246" y="146"/>
                        </Array>
                    </mxGeometry>
                </mxCell>
                <mxCell id="5" value="步行场景要素" style="rounded=1;whiteSpace=wrap;html=1;fontSize=10;" vertex="1" parent="37">
                    <mxGeometry x="301" y="112" width="100" height="21.5" as="geometry"/>
                </mxCell>
                <mxCell id="11" value="" style="strokeWidth=1;html=1;shape=mxgraph.flowchart.annotation_2;align=left;labelPosition=right;pointerEvents=1;sketch=0;fontSize=10;gradientColor=none;" vertex="1" parent="37">
                    <mxGeometry x="411" y="73.5" width="16" height="95" as="geometry"/>
                </mxCell>
                <mxCell id="12" value="行人" style="text;html=1;strokeColor=none;fillColor=none;align=center;verticalAlign=middle;whiteSpace=wrap;rounded=0;sketch=0;fontSize=10;" vertex="1" parent="37">
                    <mxGeometry x="421" y="80.5" width="40" height="15" as="geometry"/>
                </mxCell>
                <mxCell id="13" value="树木" style="text;html=1;strokeColor=none;fillColor=none;align=center;verticalAlign=middle;whiteSpace=wrap;rounded=0;sketch=0;fontSize=10;" vertex="1" parent="37">
                    <mxGeometry x="421" y="95" width="40" height="15" as="geometry"/>
                </mxCell>
                <mxCell id="14" value="草地" style="text;html=1;strokeColor=none;fillColor=none;align=center;verticalAlign=middle;whiteSpace=wrap;rounded=0;sketch=0;fontSize=10;" vertex="1" parent="37">
                    <mxGeometry x="421" y="109" width="40" height="15" as="geometry"/>
                </mxCell>
                <mxCell id="15" value="建筑" style="text;html=1;strokeColor=none;fillColor=none;align=center;verticalAlign=middle;whiteSpace=wrap;rounded=0;sketch=0;fontSize=10;" vertex="1" parent="37">
                    <mxGeometry x="421" y="123" width="40" height="15" as="geometry"/>
                </mxCell>
                <mxCell id="17" value="车辆" style="text;html=1;strokeColor=none;fillColor=none;align=center;verticalAlign=middle;whiteSpace=wrap;rounded=0;sketch=0;fontSize=10;" vertex="1" parent="37">
                    <mxGeometry x="421" y="137" width="40" height="15" as="geometry"/>
                </mxCell>
                <mxCell id="18" value="..." style="text;html=1;strokeColor=none;fillColor=none;align=center;verticalAlign=middle;whiteSpace=wrap;rounded=0;sketch=0;fontSize=10;" vertex="1" parent="37">
                    <mxGeometry x="421" y="150.5" width="40" height="15" as="geometry"/>
                </mxCell>
                <mxCell id="93" style="edgeStyle=orthogonalEdgeStyle;rounded=0;html=1;exitX=0.5;exitY=1;exitDx=0;exitDy=0;entryX=0.5;entryY=0;entryDx=0;entryDy=0;fontSize=8;elbow=vertical;strokeWidth=1;" edge="1" parent="37" source="19" target="26">
                    <mxGeometry relative="1" as="geometry">
                        <Array as="points">
                            <mxPoint x="141" y="146"/>
                            <mxPoint x="246" y="146"/>
                        </Array>
                    </mxGeometry>
                </mxCell>
                <mxCell id="19" value="人行道范围" style="rounded=1;whiteSpace=wrap;html=1;fontSize=10;" vertex="1" parent="37">
                    <mxGeometry x="91" y="112.75" width="100" height="21.5" as="geometry"/>
                </mxCell>
                <mxCell id="91" style="edgeStyle=orthogonalEdgeStyle;rounded=0;html=1;exitX=0.5;exitY=1;exitDx=0;exitDy=0;entryX=0.5;entryY=0;entryDx=0;entryDy=0;fontSize=8;elbow=vertical;" edge="1" parent="37" source="20" target="19">
                    <mxGeometry relative="1" as="geometry"/>
                </mxCell>
                <mxCell id="20" value="&lt;span style=&quot;font-size: 10px&quot;&gt;迁移学习训练&lt;br&gt;人行道语义分割模型&lt;br&gt;&lt;/span&gt;" style="shape=parallelogram;perimeter=parallelogramPerimeter;whiteSpace=wrap;html=1;fixedSize=1;sketch=0;" vertex="1" parent="37">
                    <mxGeometry x="80" y="63.75" width="130" height="37.5" as="geometry"/>
                </mxCell>
                <mxCell id="26" value="" style="swimlane;startSize=0;" vertex="1" parent="37">
                    <mxGeometry x="91" y="158" width="310" height="42.5" as="geometry"/>
                </mxCell>
                <mxCell id="30" value="像素场景特征" style="rounded=1;whiteSpace=wrap;html=1;fontSize=10;" vertex="1" parent="26">
                    <mxGeometry x="59.5" y="18" width="85" height="20" as="geometry"/>
                </mxCell>
                <mxCell id="31" value="图斑场景特征" style="rounded=1;whiteSpace=wrap;html=1;fontSize=10;" vertex="1" parent="26">
                    <mxGeometry x="159.5" y="18" width="91" height="20" as="geometry"/>
                </mxCell>
                <mxCell id="32" value="步行场景特征库" style="text;html=1;align=center;verticalAlign=middle;resizable=0;points=[];autosize=1;strokeColor=none;fillColor=none;fontSize=10;" vertex="1" parent="26">
                    <mxGeometry x="110" y="-1" width="90" height="20" as="geometry"/>
                </mxCell>
                <mxCell id="35" value="语义融合" style="text;html=1;strokeColor=none;fillColor=none;align=center;verticalAlign=middle;whiteSpace=wrap;rounded=0;sketch=0;fontSize=8;" vertex="1" parent="37">
                    <mxGeometry x="216" y="123" width="60" height="30" as="geometry"/>
                </mxCell>
                <mxCell id="95" style="edgeStyle=orthogonalEdgeStyle;rounded=0;html=1;exitX=0.5;exitY=1;exitDx=0;exitDy=0;entryX=0.5;entryY=0;entryDx=0;entryDy=0;fontSize=8;elbow=vertical;strokeWidth=1;" edge="1" parent="37" source="19" target="26">
                    <mxGeometry relative="1" as="geometry">
                        <mxPoint x="211" y="254.25" as="sourcePoint"/>
                        <mxPoint x="316" y="276" as="targetPoint"/>
                        <Array as="points">
                            <mxPoint x="141" y="146"/>
                            <mxPoint x="246" y="146"/>
                        </Array>
                    </mxGeometry>
                </mxCell>
                <mxCell id="38" value="研究内容1：&amp;nbsp;&lt;span style=&quot;font-size: 9px;&quot;&gt;城市步行空间场景解析&lt;/span&gt;" style="text;html=1;align=center;verticalAlign=middle;resizable=0;points=[];autosize=1;strokeColor=none;fillColor=none;fontSize=9;fontStyle=1" vertex="1" parent="37">
                    <mxGeometry x="5" y="6" width="160" height="20" as="geometry"/>
                </mxCell>
                <mxCell id="101" style="edgeStyle=orthogonalEdgeStyle;rounded=0;html=1;exitX=0.25;exitY=1;exitDx=0;exitDy=0;fontSize=10;strokeWidth=1;elbow=vertical;shape=flexArrow;endSize=2;startSize=6;targetPerimeterSpacing=0;sourcePerimeterSpacing=0;fillColor=default;" edge="1" parent="37">
                    <mxGeometry relative="1" as="geometry">
                        <mxPoint x="370.5" y="200.5" as="sourcePoint"/>
                        <mxPoint x="370" y="220" as="targetPoint"/>
                    </mxGeometry>
                </mxCell>
                <mxCell id="39" value="" style="swimlane;startSize=0;sketch=0;fontSize=10;strokeWidth=1;gradientColor=none;dashed=1;" vertex="1" parent="1">
                    <mxGeometry x="70" y="381" width="242" height="250" as="geometry"/>
                </mxCell>
                <mxCell id="50" style="edgeStyle=orthogonalEdgeStyle;rounded=0;html=1;exitX=0.5;exitY=1;exitDx=0;exitDy=0;entryX=0.5;entryY=0;entryDx=0;entryDy=0;fontSize=10;elbow=vertical;" edge="1" parent="39" source="41" target="44">
                    <mxGeometry relative="1" as="geometry"/>
                </mxCell>
                <mxCell id="52" value="因变量" style="edgeLabel;html=1;align=center;verticalAlign=middle;resizable=0;points=[];fontSize=10;" vertex="1" connectable="0" parent="50">
                    <mxGeometry x="-0.28" y="-1" relative="1" as="geometry">
                        <mxPoint x="15" as="offset"/>
                    </mxGeometry>
                </mxCell>
                <mxCell id="41" value="感知评分数据" style="rounded=1;whiteSpace=wrap;html=1;fontSize=10;" vertex="1" parent="39">
                    <mxGeometry x="20" y="30" width="90" height="20" as="geometry"/>
                </mxCell>
                <mxCell id="51" style="edgeStyle=orthogonalEdgeStyle;rounded=0;html=1;exitX=0.5;exitY=1;exitDx=0;exitDy=0;entryX=0.5;entryY=0;entryDx=0;entryDy=0;fontSize=10;elbow=vertical;" edge="1" parent="39" source="42" target="44">
                    <mxGeometry relative="1" as="geometry"/>
                </mxCell>
                <mxCell id="53" value="自变量" style="edgeLabel;html=1;align=center;verticalAlign=middle;resizable=0;points=[];fontSize=10;" vertex="1" connectable="0" parent="51">
                    <mxGeometry x="0.222" relative="1" as="geometry">
                        <mxPoint x="7" as="offset"/>
                    </mxGeometry>
                </mxCell>
                <mxCell id="42" value="步行场景特征" style="rounded=1;whiteSpace=wrap;html=1;fontSize=10;" vertex="1" parent="39">
                    <mxGeometry x="129.5" y="30" width="90" height="20" as="geometry"/>
                </mxCell>
                <mxCell id="57" style="edgeStyle=orthogonalEdgeStyle;rounded=0;html=1;exitX=0.5;exitY=1;exitDx=0;exitDy=0;entryX=0.5;entryY=0;entryDx=0;entryDy=0;fontSize=10;elbow=vertical;" edge="1" parent="39" source="44" target="48">
                    <mxGeometry relative="1" as="geometry"/>
                </mxCell>
                <mxCell id="44" value="" style="swimlane;startSize=0;sketch=0;fontSize=10;strokeWidth=1;gradientColor=none;" vertex="1" parent="39">
                    <mxGeometry x="20" y="80" width="200" height="90" as="geometry"/>
                </mxCell>
                <mxCell id="45" value="随机森林" style="shape=parallelogram;perimeter=parallelogramPerimeter;whiteSpace=wrap;html=1;fixedSize=1;sketch=0;fontSize=10;strokeWidth=1;gradientColor=none;" vertex="1" parent="44">
                    <mxGeometry x="10" y="22.5" width="95" height="25" as="geometry"/>
                </mxCell>
                <mxCell id="46" value="支持向量机" style="shape=parallelogram;perimeter=parallelogramPerimeter;whiteSpace=wrap;html=1;fixedSize=1;sketch=0;fontSize=10;strokeWidth=1;gradientColor=none;" vertex="1" parent="44">
                    <mxGeometry x="99.5" y="22.5" width="95" height="25" as="geometry"/>
                </mxCell>
                <mxCell id="47" value="XGBoost" style="shape=parallelogram;perimeter=parallelogramPerimeter;whiteSpace=wrap;html=1;fixedSize=1;sketch=0;fontSize=10;strokeWidth=1;gradientColor=none;" vertex="1" parent="44">
                    <mxGeometry x="4.5" y="53" width="95" height="25" as="geometry"/>
                </mxCell>
                <mxCell id="49" value="机器学习模型对比" style="text;html=1;align=center;verticalAlign=middle;resizable=0;points=[];autosize=1;strokeColor=none;fillColor=none;fontSize=10;" vertex="1" parent="44">
                    <mxGeometry x="-2.5" width="100" height="20" as="geometry"/>
                </mxCell>
                <mxCell id="54" value="LightGBM" style="shape=parallelogram;perimeter=parallelogramPerimeter;whiteSpace=wrap;html=1;fixedSize=1;sketch=0;fontSize=10;strokeWidth=1;gradientColor=none;" vertex="1" parent="44">
                    <mxGeometry x="95" y="53" width="95" height="25" as="geometry"/>
                </mxCell>
                <mxCell id="59" style="edgeStyle=orthogonalEdgeStyle;rounded=0;html=1;exitX=0.5;exitY=1;exitDx=0;exitDy=0;entryX=0.5;entryY=0;entryDx=0;entryDy=0;fontSize=10;elbow=vertical;" edge="1" parent="39" source="48" target="58">
                    <mxGeometry relative="1" as="geometry"/>
                </mxCell>
                <mxCell id="48" value="SHAP解释框架" style="shape=parallelogram;perimeter=parallelogramPerimeter;whiteSpace=wrap;html=1;fixedSize=1;sketch=0;fontSize=10;strokeWidth=1;gradientColor=none;" vertex="1" parent="39">
                    <mxGeometry x="65" y="183" width="110" height="25" as="geometry"/>
                </mxCell>
                <mxCell id="58" value="各场景特征对行人感知的影响能力" style="rounded=1;whiteSpace=wrap;html=1;fontSize=10;" vertex="1" parent="39">
                    <mxGeometry x="20" y="221" width="200" height="20" as="geometry"/>
                </mxCell>
                <mxCell id="40" value="研究内容2： 基于场景的行人环境感知影响因素建模" style="text;html=1;align=center;verticalAlign=middle;resizable=0;points=[];autosize=1;strokeColor=none;fillColor=none;fontSize=9;fontStyle=1" vertex="1" parent="1">
                    <mxGeometry x="80" y="385" width="220" height="20" as="geometry"/>
                </mxCell>
                <mxCell id="60" value="" style="swimlane;startSize=0;sketch=0;fontSize=10;strokeWidth=1;gradientColor=none;dashed=1;" vertex="1" parent="1">
                    <mxGeometry x="320" y="381" width="240" height="250" as="geometry"/>
                </mxCell>
                <mxCell id="84" style="edgeStyle=orthogonalEdgeStyle;rounded=0;html=1;exitX=0.5;exitY=1;exitDx=0;exitDy=0;fontSize=10;elbow=vertical;" edge="1" parent="60" source="66" target="83">
                    <mxGeometry relative="1" as="geometry">
                        <Array as="points">
                            <mxPoint x="65" y="70"/>
                            <mxPoint x="121" y="70"/>
                        </Array>
                    </mxGeometry>
                </mxCell>
                <mxCell id="66" value="步行场景特征" style="rounded=1;whiteSpace=wrap;html=1;fontSize=10;" vertex="1" parent="60">
                    <mxGeometry x="20" y="30" width="90" height="20" as="geometry"/>
                </mxCell>
                <mxCell id="73" style="edgeStyle=orthogonalEdgeStyle;rounded=0;html=1;exitX=0.5;exitY=1;exitDx=0;exitDy=0;entryX=0.5;entryY=0;entryDx=0;entryDy=0;fontSize=10;elbow=vertical;" edge="1" parent="60" source="74" target="75">
                    <mxGeometry relative="1" as="geometry"/>
                </mxCell>
                <mxCell id="74" value="线性回归模型" style="shape=parallelogram;perimeter=parallelogramPerimeter;whiteSpace=wrap;html=1;fixedSize=1;sketch=0;fontSize=10;strokeWidth=1;gradientColor=none;" vertex="1" parent="60">
                    <mxGeometry x="66" y="182" width="110" height="25" as="geometry"/>
                </mxCell>
                <mxCell id="75" value="行人感知步行环境的认知过程" style="rounded=1;whiteSpace=wrap;html=1;fontSize=10;" vertex="1" parent="60">
                    <mxGeometry x="21" y="221" width="200" height="20" as="geometry"/>
                </mxCell>
                <mxCell id="85" style="edgeStyle=orthogonalEdgeStyle;rounded=0;html=1;exitX=0.5;exitY=1;exitDx=0;exitDy=0;entryX=0.5;entryY=0;entryDx=0;entryDy=0;fontSize=10;elbow=vertical;" edge="1" parent="60" source="81" target="83">
                    <mxGeometry relative="1" as="geometry">
                        <Array as="points">
                            <mxPoint x="175" y="70"/>
                            <mxPoint x="121" y="70"/>
                        </Array>
                    </mxGeometry>
                </mxCell>
                <mxCell id="81" value="眼动轨迹点" style="rounded=1;whiteSpace=wrap;html=1;fontSize=10;" vertex="1" parent="60">
                    <mxGeometry x="130" y="30" width="90" height="20" as="geometry"/>
                </mxCell>
                <mxCell id="87" style="edgeStyle=orthogonalEdgeStyle;rounded=0;html=1;exitX=0.5;exitY=1;exitDx=0;exitDy=0;entryX=0.5;entryY=0;entryDx=0;entryDy=0;fontSize=8;elbow=vertical;" edge="1" parent="60" source="83" target="74">
                    <mxGeometry relative="1" as="geometry"/>
                </mxCell>
                <mxCell id="83" value="眼动语义统计指标" style="rounded=1;whiteSpace=wrap;html=1;fontSize=10;" vertex="1" parent="60">
                    <mxGeometry x="61" y="91" width="120" height="20" as="geometry"/>
                </mxCell>
                <mxCell id="90" style="edgeStyle=orthogonalEdgeStyle;rounded=0;html=1;exitX=0;exitY=0.5;exitDx=0;exitDy=0;entryX=0.5;entryY=0;entryDx=0;entryDy=0;fontSize=8;elbow=vertical;" edge="1" parent="60" source="63" target="74">
                    <mxGeometry relative="1" as="geometry"/>
                </mxCell>
                <mxCell id="63" value="感知评分数据" style="rounded=1;whiteSpace=wrap;html=1;fontSize=10;" vertex="1" parent="60">
                    <mxGeometry x="140" y="131" width="70" height="20" as="geometry"/>
                </mxCell>
                <mxCell id="86" value="轨迹点叠置场景语义" style="text;html=1;strokeColor=none;fillColor=none;align=center;verticalAlign=middle;whiteSpace=wrap;rounded=0;sketch=0;fontSize=8;" vertex="1" parent="60">
                    <mxGeometry x="61" y="56" width="119" height="12" as="geometry"/>
                </mxCell>
                <mxCell id="89" style="edgeStyle=orthogonalEdgeStyle;rounded=0;html=1;exitX=1;exitY=0.5;exitDx=0;exitDy=0;entryX=0.5;entryY=0;entryDx=0;entryDy=0;fontSize=8;elbow=vertical;" edge="1" parent="60" source="88" target="74">
                    <mxGeometry relative="1" as="geometry"/>
                </mxCell>
                <mxCell id="88" value="情景分类指标" style="rounded=1;whiteSpace=wrap;html=1;fontSize=10;" vertex="1" parent="60">
                    <mxGeometry x="30" y="131" width="70" height="20" as="geometry"/>
                </mxCell>
                <mxCell id="77" value="&lt;font style=&quot;font-size: 9px;&quot;&gt;研究内容3：&amp;nbsp;&lt;span style=&quot;font-size: 9px;&quot;&gt;基于眼动分析的步行环境感知机理探究&lt;/span&gt;&lt;/font&gt;" style="text;html=1;align=center;verticalAlign=middle;resizable=0;points=[];autosize=1;strokeColor=none;fillColor=none;fontSize=9;fontStyle=1" vertex="1" parent="1">
                    <mxGeometry x="330" y="385" width="220" height="20" as="geometry"/>
                </mxCell>
                <mxCell id="98" value="" style="swimlane;startSize=0;dashed=1;sketch=0;fontSize=8;strokeWidth=1;gradientColor=none;" vertex="1" parent="1">
                    <mxGeometry x="70" y="640" width="489" height="80" as="geometry"/>
                </mxCell>
                <mxCell id="99" value="&lt;font style=&quot;font-size: 9px;&quot;&gt;&lt;font style=&quot;font-size: 9px;&quot;&gt;研究内容4：&amp;nbsp;&lt;/font&gt;&lt;span style=&quot;font-size: 9px;&quot;&gt;环境感知视角下的城市空间可步行性评价&lt;/span&gt;&lt;/font&gt;" style="text;html=1;align=center;verticalAlign=middle;resizable=0;points=[];autosize=1;strokeColor=none;fillColor=none;fontSize=9;fontStyle=1" vertex="1" parent="98">
                    <mxGeometry x="6" y="6" width="230" height="20" as="geometry"/>
                </mxCell>
                <mxCell id="107" style="edgeStyle=orthogonalEdgeStyle;shape=flexArrow;rounded=0;html=1;exitX=0.5;exitY=1;exitDx=0;exitDy=0;entryX=0.245;entryY=0;entryDx=0;entryDy=0;entryPerimeter=0;fontSize=9;startSize=6;endSize=2;sourcePerimeterSpacing=0;targetPerimeterSpacing=0;strokeColor=default;strokeWidth=1;fillColor=default;elbow=vertical;" edge="1" parent="1" source="58" target="98">
                    <mxGeometry relative="1" as="geometry"/>
                </mxCell>
                <mxCell id="108" style="edgeStyle=orthogonalEdgeStyle;shape=flexArrow;rounded=0;html=1;exitX=0.5;exitY=1;exitDx=0;exitDy=0;entryX=0.759;entryY=0.004;entryDx=0;entryDy=0;entryPerimeter=0;fontSize=9;startSize=6;endSize=2;sourcePerimeterSpacing=0;targetPerimeterSpacing=0;strokeColor=default;strokeWidth=1;fillColor=default;elbow=vertical;" edge="1" parent="1" source="75" target="98">
                    <mxGeometry relative="1" as="geometry"/>
                </mxCell>
                <mxCell id="109" style="edgeStyle=orthogonalEdgeStyle;rounded=0;html=1;exitX=0.25;exitY=1;exitDx=0;exitDy=0;fontSize=10;strokeWidth=1;elbow=vertical;shape=flexArrow;endSize=2;startSize=6;targetPerimeterSpacing=0;sourcePerimeterSpacing=0;fillColor=default;" edge="1" parent="1">
                    <mxGeometry relative="1" as="geometry">
                        <mxPoint x="191.5" y="360.5" as="sourcePoint"/>
                        <mxPoint x="191" y="380" as="targetPoint"/>
                    </mxGeometry>
                </mxCell>
            </root>
        </mxGraphModel>
    </diagram>
</mxfile>